<svg width="279" height="35" viewBox="0 0 279 35" fill="none" xmlns="http://www.w3.org/2000/svg">
<path d="M12.8 34.6C10.6667 34.6 8.53333 34.2 6.4 33.4C4.26667 32.6 2.38333 31.4333 0.75 29.9L4.95 24.85C6.11667 25.85 7.41667 26.6667 8.85 27.3C10.2833 27.9333 11.6667 28.25 13 28.25C16.0333 28.25 17.55 27.2 17.55 25.1C17.55 24.0667 17.1167 23.3167 16.25 22.85C15.4167 22.35 14.2833 21.8 12.85 21.2L8.6 19.4C6.93333 18.7333 5.41667 17.6833 4.05 16.25C2.71667 14.7833 2.05 12.8667 2.05 10.5C2.05 7.8 3.13333 5.51667 5.3 3.65C7.46667 1.75 10.25 0.799998 13.65 0.799998C15.5167 0.799998 17.3833 1.16667 19.25 1.9C21.1167 2.63333 22.75 3.7 24.15 5.1L20.4 9.75C19.3333 8.91666 18.2667 8.28333 17.2 7.85C16.1333 7.38333 14.95 7.15 13.65 7.15C12.3833 7.15 11.3667 7.41667 10.6 7.95C9.86667 8.45 9.5 9.16667 9.5 10.1C9.5 11.1 9.96667 11.85 10.9 12.35C11.8667 12.85 13.05 13.3833 14.45 13.95L18.65 15.65C20.6167 16.45 22.1833 17.55 23.35 18.95C24.5167 20.35 25.1 22.2 25.1 24.5C25.1 27.2 24.0167 29.5667 21.85 31.6C19.7167 33.6 16.7 34.6 12.8 34.6ZM30.6332 34V1.4H51.0332V7.6H37.9832V14.15H49.0832V20.3H37.9832V27.8H51.5332V34H30.6332ZM58.0258 34V1.4H65.5758L74.0758 17.6L77.2758 24.8H77.4758C77.3424 23.0667 77.1591 21.1333 76.9258 19C76.6924 16.8667 76.5758 14.8333 76.5758 12.9V1.4H83.5758V34H76.0258L67.5258 17.75L64.3258 10.65H64.1258C64.2924 12.45 64.4758 14.3833 64.6758 16.45C64.9091 18.5167 65.0258 20.5167 65.0258 22.45V34H58.0258ZM98.9277 17.5L98.1277 20.5H105.078L104.328 17.5C103.861 15.8667 103.411 14.1333 102.978 12.3C102.544 10.4667 102.111 8.7 101.678 7H101.478C101.078 8.73333 100.661 10.5167 100.228 12.35C99.8277 14.15 99.3944 15.8667 98.9277 17.5ZM108.578 34L106.578 26.25H96.6277L94.6277 34H87.1277L97.3277 1.4H106.178L116.378 34H108.578ZM119.94 34V1.4H127.29V34H119.94ZM234.743 34.6C230.51 34.6 227.276 33.35 225.043 30.85C222.81 28.35 221.693 24.3667 221.693 18.9V1.4H229.093V19.65C229.093 22.85 229.576 25.0833 230.543 26.35C231.51 27.6167 232.91 28.25 234.743 28.25C236.576 28.25 237.993 27.6167 238.993 26.35C239.993 25.0833 240.493 22.85 240.493 19.65V1.4H247.593V18.9C247.593 24.3667 246.493 28.35 244.293 30.85C242.126 33.35 238.943 34.6 234.743 34.6ZM251.357 34L260.407 17.25L251.907 1.4H260.107L262.957 7.55C263.323 8.31666 263.69 9.13333 264.057 10C264.423 10.8333 264.84 11.7667 265.307 12.8H265.507C265.873 11.7667 266.223 10.8333 266.557 10C266.923 9.13333 267.273 8.31666 267.607 7.55L270.207 1.4H278.057L269.607 17.6L278.607 34H270.407L267.157 27.35C266.757 26.5167 266.357 25.6667 265.957 24.8C265.59 23.9333 265.173 23 264.707 22H264.507C264.14 23 263.757 23.9333 263.357 24.8C262.99 25.6667 262.64 26.5167 262.307 27.35L259.257 34H251.357Z" fill="#F03232"/>
<path d="M134.979 34V1.4H144.179C149.146 1.4 153.112 2.7 156.079 5.3C159.046 7.86667 160.529 11.95 160.529 17.55C160.529 23.15 159.062 27.3 156.129 30C153.196 32.6667 149.346 34 144.579 34H134.979ZM142.329 28.05H143.729C146.496 28.05 148.729 27.2833 150.429 25.75C152.129 24.1833 152.979 21.45 152.979 17.55C152.979 13.65 152.129 10.9833 150.429 9.55C148.729 8.08333 146.496 7.35 143.729 7.35H142.329V28.05ZM166.717 34V1.4H187.117V7.6H174.067V14.15H185.167V20.3H174.067V27.8H187.617V34H166.717ZM199.76 34L189.91 1.4H197.71L201.61 16.6C202.11 18.3667 202.543 20.1 202.91 21.8C203.31 23.5 203.76 25.25 204.26 27.05H204.46C204.926 25.25 205.36 23.5 205.76 21.8C206.16 20.1 206.593 18.3667 207.06 16.6L210.91 1.4H218.41L208.61 34H199.76Z" fill="white"/>
</svg>
