<svg width="433" height="433" viewBox="0 0 433 433" fill="none" xmlns="http://www.w3.org/2000/svg">
<path d="M106.106 142.405C121.391 142.405 133.781 130.015 133.781 114.731C133.781 99.4463 121.391 87.0558 106.106 87.0558C90.8218 87.0558 78.4314 99.4463 78.4314 114.731C78.4314 130.015 90.8218 142.405 106.106 142.405Z" fill="#FFB69E"/>
<path d="M139.965 151.23C133.389 151.23 90.3956 151.23 83.871 151.23C77.8123 144.904 64.5805 130.631 51.9854 116.902L43.492 59.9612C42.4036 52.6679 35.6092 47.6368 28.3142 48.7235C21.02 49.8119 15.9881 56.6071 17.0765 63.9013L26.1737 124.886C26.5661 127.518 27.7366 129.973 29.5337 131.936C39.9164 143.282 70.5934 175.392 70.5934 175.392V247.038H141.325V245.722H159.043C166.418 245.722 172.397 239.743 172.397 232.368V183.665C172.397 165.78 157.848 151.23 139.965 151.23ZM145.69 219.012H141.325V178.107C143.825 178.72 145.69 180.975 145.69 183.662V219.012Z" fill="#FFB69E"/>
<path d="M139.965 151.23C139.965 151.23 118.796 151.265 118.797 151.283C119.115 158.392 112.519 164.445 105.634 164.445C98.2546 164.445 92.7905 158.415 92.4717 151.283C92.4709 151.265 83.8709 151.23 83.8709 151.23C79.6365 146.808 71.8974 138.503 63.3212 129.218L43.5283 146.91C55.7961 159.897 70.5934 175.39 70.5934 175.39V247.037H141.325V178.108C143.825 178.722 145.69 180.976 145.69 183.664V210.2H172.397V183.664C172.397 165.78 157.848 151.23 139.965 151.23Z" fill="#87AFB9"/>
<path d="M139.608 367.274C146.892 367.274 153.29 361.966 154.437 354.543L165.524 282.857C166.406 277.154 163.943 271.45 159.188 268.181L133.136 250.271C126.299 245.569 116.945 247.302 112.244 254.14C107.542 260.977 109.275 270.331 116.113 275.032L134.386 287.595L124.742 349.952C123.474 358.152 129.094 365.827 137.294 367.095C138.07 367.215 138.844 367.274 139.608 367.274Z" fill="#5F6E9B"/>
<g filter="url(#filter0_d)">
<path d="M78.9201 367.274C71.636 367.274 65.2383 361.966 64.0907 354.543L53.0043 282.857C52.1223 277.154 54.585 271.45 59.3404 268.181L85.3922 250.271C92.2289 245.569 101.583 247.302 106.284 254.14C110.986 260.977 109.253 270.331 102.415 275.032L84.1423 287.595L93.7858 349.951C95.0535 358.151 89.4338 365.827 81.2339 367.094C80.4567 367.215 79.6829 367.274 78.9201 367.274Z" fill="#414B82"/>
</g>
<path d="M191.096 384.424C197.258 384.424 202.252 379.429 202.252 373.268V260.295C202.252 254.133 197.257 249.139 191.096 249.139C184.934 249.139 179.94 254.134 179.94 260.295V373.268C179.939 379.429 184.935 384.424 191.096 384.424Z" fill="#783C28"/>
<path d="M28.7589 384.424C34.9207 384.424 39.9146 379.429 39.9146 373.268V260.295C39.9146 254.133 34.9199 249.139 28.7589 249.139C22.598 249.139 17.6033 254.134 17.6033 260.295V373.268C17.6033 379.429 22.598 384.424 28.7589 384.424Z" fill="#783C28"/>
<path d="M216.375 261.03C216.375 269.53 209.483 276.421 200.983 276.421H15.3918C6.89164 276.421 0 269.53 0 261.03C0 252.529 6.89164 245.638 15.3918 245.638H200.982C209.484 245.637 216.375 252.529 216.375 261.03Z" fill="#A55A3C"/>
<path d="M142.025 219.012H100.962C93.5864 219.012 87.6082 224.99 87.6082 232.365C87.6082 239.741 93.5864 245.719 100.962 245.719H142.025V219.012Z" fill="#FFB69E"/>
<path d="M366.642 167.067H292.103V266.184H366.642V167.067Z" fill="#87AFB9"/>
<path d="M284.958 354.037L274.032 283.387C273.163 277.766 275.59 272.144 280.277 268.923L305.953 251.271C312.692 246.637 321.909 248.345 326.543 255.084C331.175 261.824 329.469 271.041 322.73 275.675L304.72 288.056L314.224 349.511C315.474 357.593 309.936 365.158 301.854 366.407C293.771 367.657 286.207 362.117 284.958 354.037Z" fill="#5F6E9B"/>
<path d="M356.883 366.407C348.801 365.157 343.263 357.593 344.512 349.511L353.894 288.847L333.312 276.88C326.242 272.769 323.843 263.706 327.954 256.636C332.065 249.566 341.126 247.168 348.197 251.278L377.513 268.323C382.781 271.386 385.635 277.364 384.704 283.387L373.779 354.037C372.528 362.119 364.962 367.656 356.883 366.407Z" fill="#414B82"/>
<path d="M404.803 230.052L387.635 174.619C383.728 162.004 372.229 153.528 359.022 153.528H333.878H324.858H299.714C286.507 153.528 275.008 162.004 271.101 174.619L253.933 230.052C252.688 234.069 253.427 238.438 255.922 241.824C258.418 245.209 262.374 247.207 266.58 247.207H315.84C323.152 247.207 329.079 241.28 329.079 233.968C329.079 226.657 323.152 220.729 315.84 220.729H284.54L296.396 182.453C296.849 180.989 298.183 180.006 299.716 180.006H324.86H333.879H359.024C360.555 180.006 361.89 180.99 362.343 182.453L374.199 220.729H342.9C335.588 220.729 329.66 226.657 329.66 233.968C329.66 241.28 335.588 247.207 342.9 247.207H392.159C396.365 247.207 400.32 245.209 402.817 241.824C405.308 238.438 406.047 234.069 404.803 230.052Z" fill="#B47D67"/>
<path d="M397.945 207.905L387.636 174.618C383.729 162.003 372.23 153.527 359.023 153.527H299.715C286.508 153.527 275.009 162.003 271.102 174.618L260.793 207.905L287.082 212.522L292.101 196.319V195.888H366.638V196.319L371.656 212.521L397.945 207.905Z" fill="#87AFB9"/>
<path d="M329.368 168.155C344.522 168.155 356.807 155.871 356.807 140.717C356.807 125.562 344.522 113.278 329.368 113.278C314.214 113.278 301.929 125.562 301.929 140.717C301.929 155.871 314.214 168.155 329.368 168.155Z" fill="#B47D67"/>
<path d="M250.194 384.424C244.135 384.424 239.223 379.512 239.223 373.453V262.359C239.223 256.3 244.135 251.389 250.194 251.389C256.252 251.389 261.164 256.3 261.164 262.359V373.454C261.165 379.512 256.252 384.424 250.194 384.424Z" fill="#783C28"/>
<path d="M408.541 384.424C402.483 384.424 397.571 379.512 397.571 373.453V262.359C397.571 256.3 402.483 251.389 408.541 251.389C414.6 251.389 419.512 256.3 419.512 262.359V373.454C419.513 379.512 414.601 384.424 408.541 384.424Z" fill="#783C28"/>
<path d="M225.736 262.359C225.736 270.719 232.512 277.495 240.872 277.495H417.864C426.223 277.495 433 270.719 433 262.359C433 253.999 426.223 247.223 417.864 247.223H240.872C232.512 247.224 225.736 253.999 225.736 262.359Z" fill="#A55A3C"/>
<path d="M359.053 228.39L329.368 236.724V192.969L359.053 184.636V228.39Z" fill="#B4D7DC"/>
<path d="M299.683 228.39L329.368 236.724V192.969L299.683 184.636V228.39Z" fill="#E4F2F6"/>
<path d="M329.078 233.968C329.078 226.657 323.151 220.729 315.839 220.729H292.1V247.208H315.839C323.151 247.208 329.078 241.281 329.078 233.968Z" fill="#B47D67"/>
<path d="M366.636 220.729H342.897C335.585 220.729 329.657 226.657 329.657 233.968C329.657 241.28 335.585 247.207 342.897 247.207H366.636V220.729Z" fill="#B47D67"/>
<defs>
<filter id="filter0_d" x="48.8274" y="247.625" width="64.1022" height="127.648" filterUnits="userSpaceOnUse" color-interpolation-filters="sRGB">
<feFlood flood-opacity="0" result="BackgroundImageFix"/>
<feColorMatrix in="SourceAlpha" type="matrix" values="0 0 0 0 0 0 0 0 0 0 0 0 0 0 0 0 0 0 127 0"/>
<feOffset dy="4"/>
<feGaussianBlur stdDeviation="2"/>
<feColorMatrix type="matrix" values="0 0 0 0 0 0 0 0 0 0 0 0 0 0 0 0 0 0 0.25 0"/>
<feBlend mode="normal" in2="BackgroundImageFix" result="effect1_dropShadow"/>
<feBlend mode="normal" in="SourceGraphic" in2="effect1_dropShadow" result="shape"/>
</filter>
</defs>
</svg>
